<svg width="240" height="320" viewBox="0 0 240 320" fill="none" xmlns="http://www.w3.org/2000/svg"><path d="M228 319.5H12C5.649 319.5.5 314.351.5 308V12C.5 5.649 5.649.5 12 .5h147.175c.396 0 .777.157 1.058.436l78.824 78.332a1.5 1.5 0 0 1 .443 1.064V308c0 6.351-5.149 11.5-11.5 11.5Z" fill="#FFF9F2" stroke="#FFC681"/><path d="M160.5 1.207 238.793 79.5H172c-6.351 0-11.5-5.149-11.5-11.5V1.207Z" fill="#FFF9F2" stroke="#FFC681"/><path d="M68.844 244.072c.33 6.627 5.89 10.842 14.295 10.842 8.886 0 14.396-4.418 14.396-11.527 0-5.561-3.123-8.658-10.562-10.36l-4.215-.965c-4.545-1.066-6.399-2.513-6.399-5.027 0-3.174 2.793-5.256 7.008-5.256 4.012 0 6.856 2.057 7.313 5.332h6.271c-.304-6.271-5.865-10.664-13.558-10.664-8.202 0-13.635 4.418-13.635 11.02 0 5.433 3.123 8.709 9.775 10.232l4.748 1.092c4.697 1.092 6.703 2.717 6.703 5.383 0 3.123-3.123 5.383-7.44 5.383-4.646 0-7.896-2.133-8.302-5.485h-6.398ZM121.59 254l12.67-36.639h-6.982l-9.141 29.149h-.432l-9.216-29.149h-7.237L114.049 254h7.541Zm49.141-14.625v-4.57h-15.209v5.002h8.811l-.026.761c-.101 5.18-3.91 8.659-9.496 8.659-6.525 0-10.613-5.18-10.613-13.61 0-8.303 4.012-13.482 10.41-13.482 4.697 0 7.973 2.336 9.293 6.576h6.525c-1.168-7.465-7.363-12.264-15.818-12.264-10.435 0-17.113 7.491-17.113 19.221 0 11.857 6.601 19.246 17.215 19.246 9.775 0 16.021-6.068 16.021-15.539Z" fill="#FF8C02"/><path fill-rule="evenodd" clip-rule="evenodd" d="M99 117a4 4 0 0 0-4 4v27.939a33.11 33.11 0 0 1-2 .061c-17.673 0-32-14.327-32-32 0-17.673 14.327-32 32-32 17.673 0 32 14.327 32 32H99Zm26 0h30a4 4 0 0 1 4 4v56a4 4 0 0 1-4 4H99a4 4 0 0 1-4-4v-28.061c16.741-1.033 30-14.938 30-31.939Z" fill="#FFC681"/></svg>